<svg width="67" height="67" viewBox="0 0 67 67" fill="none" xmlns="http://www.w3.org/2000/svg">
<g clip-path="url(#clip0_4750_9258)">
<path d="M66.9592 0H0V66.9592H66.9592V0Z" fill="white"/>
<path d="M30.2682 25.5308C34.6581 23.7572 36.7789 18.7607 35.0053 14.3709C33.2317 9.98108 28.2353 7.86022 23.8455 9.63382C19.4556 11.4074 17.3348 16.4039 19.1084 20.7937C20.882 25.1835 25.8784 27.3044 30.2682 25.5308Z" fill="#E6E6E6"/>
<path d="M20.7941 47.8511C25.1839 46.0775 27.3048 41.081 25.5312 36.6912C23.7576 32.3014 18.7612 30.1805 14.3713 31.9541C9.98151 33.7277 7.86064 38.7242 9.63425 43.114C11.4078 47.5038 16.4043 49.6247 20.7941 47.8511Z" fill="#E6E6E6"/>
<path d="M52.5881 35.0054C56.9779 33.2318 59.0988 28.2353 57.3251 23.8455C55.5515 19.4557 50.5551 17.3348 46.1653 19.1084C41.7755 20.882 39.6546 25.8785 41.4282 30.2683C43.2018 34.6581 48.1982 36.779 52.5881 35.0054Z" fill="#E6E6E6"/>
<path d="M43.1139 57.3252C47.5038 55.5516 49.6246 50.5552 47.851 46.1653C46.0774 41.7755 41.081 39.6547 36.6912 41.4283C32.3013 43.2019 30.1805 48.1983 31.9541 52.5881C33.7277 56.9779 38.7241 59.0988 43.1139 57.3252Z" fill="#E6E6E6"/>
<path d="M31.7705 25.0789C36.41 24.135 39.4059 19.6087 38.462 14.9692C37.5181 10.3297 32.9918 7.33377 28.3523 8.2777C23.7127 9.22162 20.7169 13.7479 21.6608 18.3874C22.6047 23.0269 27.131 26.0228 31.7705 25.0789Z" fill="#CCCCCC"/>
<path d="M18.3877 45.2986C23.0272 44.3547 26.0231 39.8284 25.0792 35.1889C24.1352 30.5494 19.609 27.5535 14.9694 28.4974C10.3299 29.4413 7.33405 33.9676 8.27797 38.6071C9.22189 43.2467 13.7482 46.2425 18.3877 45.2986Z" fill="#CCCCCC"/>
<path d="M51.9897 38.4617C56.6293 37.5178 59.6251 32.9915 58.6812 28.352C57.7373 23.7125 53.211 20.7166 48.5715 21.6605C43.932 22.6044 40.9361 27.1307 41.88 31.7702C42.8239 36.4098 47.3502 39.4056 51.9897 38.4617Z" fill="#CCCCCC"/>
<path d="M38.6069 58.6814C43.2465 57.7375 46.2423 53.2112 45.2984 48.5717C44.3545 43.9322 39.8282 40.9363 35.1887 41.8802C30.5492 42.8242 27.5533 47.3504 28.4972 51.99C29.4411 56.6295 33.9674 59.6254 38.6069 58.6814Z" fill="#CCCCCC"/>
<path d="M33.4794 24.9071C38.214 24.9071 42.0521 21.069 42.0521 16.3344C42.0521 11.5998 38.214 7.76172 33.4794 7.76172C28.7449 7.76172 24.9067 11.5998 24.9067 16.3344C24.9067 21.069 28.7449 24.9071 33.4794 24.9071Z" fill="black"/>
<path d="M16.3339 42.0526C21.0685 42.0526 24.9066 38.2145 24.9066 33.4799C24.9066 28.7454 21.0685 24.9072 16.3339 24.9072C11.5994 24.9072 7.76123 28.7454 7.76123 33.4799C7.76123 38.2145 11.5994 42.0526 16.3339 42.0526Z" fill="black"/>
<path d="M50.6249 42.0526C55.3595 42.0526 59.1976 38.2145 59.1976 33.4799C59.1976 28.7454 55.3595 24.9072 50.6249 24.9072C45.8904 24.9072 42.0522 28.7454 42.0522 33.4799C42.0522 38.2145 45.8904 42.0526 50.6249 42.0526Z" fill="black"/>
<path d="M33.4794 59.1976C38.214 59.1976 42.0521 55.3595 42.0521 50.6249C42.0521 45.8904 38.214 42.0522 33.4794 42.0522C28.7449 42.0522 24.9067 45.8904 24.9067 50.6249C24.9067 55.3595 28.7449 59.1976 33.4794 59.1976Z" fill="black"/>
</g>
<defs>
<clipPath id="clip0_4750_9258">
<rect width="67" height="67" rx="16" fill="white"/>
</clipPath>
</defs>
</svg>
