<svg width="772" height="225" viewBox="0 0 772 225" fill="none" xmlns="http://www.w3.org/2000/svg">
<circle cx="90.9055" cy="59.0928" r="28.8007" transform="rotate(-22 90.9055 59.0928)" fill="white" fill-opacity="0.1"/>
<circle cx="59.0696" cy="134.078" r="28.8007" transform="rotate(-22 59.0696 134.078)" fill="white" fill-opacity="0.1"/>
<circle cx="165.954" cy="90.9202" r="28.8007" transform="rotate(-22 165.954 90.9202)" fill="white" fill-opacity="0.1"/>
<circle cx="134.12" cy="165.907" r="28.8007" transform="rotate(-22 134.12 165.907)" fill="white" fill-opacity="0.1"/>
<circle cx="100.888" cy="56.0432" r="28.8007" transform="rotate(-11.5 100.888 56.0432)" fill="white" fill-opacity="0.2"/>
<circle cx="55.9566" cy="123.973" r="28.8007" transform="rotate(-11.5 55.9566 123.973)" fill="white" fill-opacity="0.2"/>
<circle cx="168.878" cy="101.006" r="28.8007" transform="rotate(-11.5 168.878 101.006)" fill="white" fill-opacity="0.2"/>
<circle cx="123.782" cy="168.935" r="28.8007" transform="rotate(-11.5 123.782 168.935)" fill="white" fill-opacity="0.2"/>
<circle cx="112.464" cy="54.8917" r="28.8007" fill="white"/>
<circle cx="54.913" cy="112.492" r="28.8007" fill="white"/>
<circle cx="170.038" cy="112.492" r="28.8007" fill="white"/>
<circle cx="112.464" cy="170.094" r="28.8007" fill="white"/>
<path d="M312.702 180.62C305.341 180.62 298.402 179.534 291.886 177.362C285.37 175.19 279.457 172.113 274.148 168.131C268.839 164.149 264.253 159.443 260.392 154.013C256.651 148.462 253.755 142.308 251.704 135.55C249.652 128.672 248.627 121.372 248.627 113.649C248.627 105.926 249.652 98.6256 251.704 91.7475C253.876 84.7487 256.892 78.4136 260.754 72.7422C264.615 66.9501 269.201 62.0027 274.51 57.8999C279.819 53.6765 285.672 50.4788 292.067 48.3068C298.583 46.0141 305.462 44.8677 312.702 44.8677C319.338 44.8677 325.613 45.7727 331.526 47.5827C337.439 49.3928 342.809 51.9872 347.635 55.3659C352.462 58.7446 356.625 62.787 360.124 67.4931C363.745 72.1992 366.46 77.5086 368.27 83.4214L342.205 89.9375C339.309 83.542 335.267 78.5946 330.078 75.0952C324.889 71.4752 318.976 69.6651 312.34 69.6651C307.272 69.6651 302.505 70.7511 298.04 72.9232C293.696 75.0952 289.895 78.1723 286.637 82.1543C283.5 86.0157 281.026 90.6012 279.216 95.9106C277.406 101.22 276.501 107.012 276.501 113.287C276.501 119.562 277.346 125.293 279.035 130.482C280.845 135.671 283.379 140.196 286.637 144.057C289.895 147.798 293.696 150.694 298.04 152.746C302.505 154.797 307.392 155.823 312.702 155.823C319.58 155.823 325.613 154.133 330.802 150.755C336.111 147.255 340.335 142.187 343.472 135.55L369.537 142.066C367.003 149.91 362.96 156.728 357.409 162.52C351.979 168.312 345.463 172.777 337.861 175.914C330.259 179.051 321.872 180.62 312.702 180.62ZM428.142 179.715C419.454 179.715 411.851 177.905 405.335 174.285C398.94 170.544 393.932 165.295 390.312 158.538C386.813 151.66 385.063 143.575 385.063 134.283V81.4303H410.403V134.826C410.403 141.704 412.032 147.134 415.291 151.117C418.549 154.978 422.953 156.909 428.504 156.909C434.054 156.909 438.459 154.978 441.717 151.117C444.975 147.134 446.604 141.704 446.604 134.826V81.4303H471.944V134.283C471.944 141.161 470.919 147.376 468.867 152.927C466.816 158.477 463.86 163.244 459.998 167.226C456.137 171.208 451.491 174.285 446.061 176.457C440.752 178.629 434.779 179.715 428.142 179.715ZM535 179.715C526.312 179.715 518.709 177.905 512.193 174.285C505.798 170.544 500.79 165.295 497.17 158.538C493.671 151.66 491.921 143.575 491.921 134.283V81.4303H517.261V134.826C517.261 141.704 518.89 147.134 522.148 151.117C525.407 154.978 529.811 156.909 535.362 156.909C540.912 156.909 545.317 154.978 548.575 151.117C551.833 147.134 553.462 141.704 553.462 134.826V81.4303H578.802V134.283C578.802 141.161 577.777 147.376 575.725 152.927C573.674 158.477 570.718 163.244 566.856 167.226C562.995 171.208 558.349 174.285 552.919 176.457C547.61 178.629 541.636 179.715 535 179.715ZM598.779 177V81.4303H622.128L623.033 95.9106C625.447 90.8425 628.705 86.9811 632.808 84.3264C636.91 81.551 641.737 80.1633 647.288 80.1633C648.977 80.1633 650.667 80.3443 652.356 80.7063C654.045 80.9477 655.554 81.3097 656.881 81.7923L654.166 106.771C652.839 106.288 651.451 105.986 650.003 105.866C648.675 105.624 647.288 105.504 645.84 105.504C638.841 105.504 633.471 107.676 629.73 112.02C625.99 116.243 624.119 122.277 624.119 130.12V177H598.779ZM713.962 179.715C706.842 179.715 700.266 178.448 694.232 175.914C688.199 173.38 682.95 169.881 678.485 165.416C674.02 160.83 670.521 155.461 667.987 149.307C665.573 143.152 664.367 136.455 664.367 129.215C664.367 121.975 665.634 115.338 668.168 109.305C670.702 103.151 674.201 97.781 678.666 93.1955C683.251 88.6101 688.561 85.0504 694.594 82.5164C700.748 79.9823 707.446 78.7153 714.686 78.7153C721.805 78.7153 728.382 79.9823 734.415 82.5164C740.448 85.0504 745.698 88.6101 750.162 93.1955C754.627 97.6603 758.066 102.97 760.479 109.124C763.013 115.157 764.28 121.794 764.28 129.034C764.28 136.274 763.013 142.971 760.479 149.126C757.945 155.28 754.386 160.649 749.8 165.235C745.336 169.82 740.026 173.38 733.872 175.914C727.839 178.448 721.202 179.715 713.962 179.715ZM714.324 156.909C718.909 156.909 723.012 155.702 726.632 153.289C730.252 150.875 733.088 147.617 735.139 143.514C737.311 139.291 738.397 134.525 738.397 129.215C738.397 123.906 737.311 119.2 735.139 115.097C733.088 110.874 730.252 107.555 726.632 105.142C723.012 102.728 718.909 101.522 714.324 101.522C709.738 101.522 705.635 102.728 702.015 105.142C698.395 107.555 695.499 110.874 693.327 115.097C691.276 119.2 690.25 123.906 690.25 129.215C690.25 134.525 691.276 139.291 693.327 143.514C695.499 147.617 698.395 150.875 702.015 153.289C705.635 155.702 709.738 156.909 714.324 156.909Z" fill="white"/>
</svg>
